<?xml version="1.0" standalone="no"?>
<!DOCTYPE svg PUBLIC "-//W3C//DTD SVG 20010904//EN"
 "http://www.w3.org/TR/2001/REC-SVG-20010904/DTD/svg10.dtd">
<svg version="1.0" xmlns="http://www.w3.org/2000/svg"
 width="968.000000pt" height="1280.000000pt" viewBox="0 0 968.000000 1280.000000"
 preserveAspectRatio="xMidYMid meet">

<g transform="translate(0.000000,1280.000000) scale(0.100000,-0.100000)"
fill="#000000" stroke="none">
<path d="M6480 9420 c-152 -27 -340 -143 -340 -210 0 -27 12 -25 40 5 26 28
135 76 230 100 116 30 336 7 443 -47 44 -22 113 -111 155 -201 52 -110 67
-200 66 -397 -1 -172 -2 -178 -43 -335 -54 -207 -63 -321 -33 -421 24 -79 114
-229 174 -291 88 -90 212 -130 310 -100 44 14 47 14 39 -2 -25 -45 -135 -150
-188 -178 -93 -50 -161 -63 -285 -54 -93 6 -111 10 -133 31 -57 54 -54 120 11
257 l36 73 -45 138 c-69 215 -151 386 -279 585 -31 47 -58 103 -69 144 l-17
67 29 58 c16 32 33 58 37 58 4 0 30 -18 57 -40 38 -30 59 -40 88 -40 63 0 102
60 75 116 -7 15 -47 57 -88 92 -41 35 -120 106 -175 156 -145 133 -245 206
-283 206 -38 0 -61 -30 -69 -89 -7 -48 5 -66 78 -123 30 -23 89 -73 131 -111
l77 -68 -76 -117 c-110 -169 -107 -166 -235 -344 -64 -90 -146 -199 -181 -243
-128 -160 -359 -510 -429 -650 -30 -59 -42 -156 -39 -325 2 -132 18 -199 61
-258 16 -23 30 -51 30 -61 0 -11 4 -31 10 -45 13 -34 2 -33 -71 6 -70 37 -176
144 -208 211 -37 76 -38 155 -5 320 3 16 1 27 -5 27 -19 0 -50 -60 -78 -148
-31 -100 -28 -172 11 -257 76 -166 208 -264 359 -266 34 -1 79 -6 99 -12 30
-8 42 -7 62 7 31 20 27 33 -24 69 -46 33 -51 47 -15 47 15 0 39 7 55 15 55 28
47 85 -12 85 -33 0 -112 50 -128 81 -11 20 -11 20 30 -1 23 -12 73 -28 111
-36 110 -23 239 6 293 65 11 12 25 21 32 21 24 0 94 32 89 40 -3 5 -36 18 -73
31 -71 23 -115 49 -145 83 -27 31 -77 138 -77 164 0 60 54 114 210 210 146 90
207 148 273 260 68 116 128 307 145 467 l7 60 79 -180 c43 -99 100 -243 126
-320 l47 -139 -33 -69 c-69 -145 -68 -216 5 -332 21 -33 50 -83 65 -112 31
-63 149 -198 205 -237 23 -16 41 -34 41 -41 0 -23 -56 -62 -137 -95 -100 -42
-210 -105 -223 -130 -15 -28 -12 -48 10 -67 16 -14 18 -25 13 -62 -7 -63 -25
-86 -84 -116 -63 -32 -80 -65 -56 -107 23 -39 22 -43 -14 -100 -22 -34 -30
-56 -26 -75 3 -15 0 -50 -5 -78 -9 -39 -7 -63 5 -110 15 -56 15 -61 -1 -74
-37 -29 -122 -61 -193 -72 -72 -11 -77 -10 -185 24 -156 50 -221 60 -292 47
-166 -30 -232 -125 -232 -335 0 -223 90 -355 290 -426 l75 -27 -55 -25 c-85
-38 -136 -52 -410 -117 -140 -34 -292 -74 -337 -89 l-83 -29 0 2073 0 2072 57
42 c82 60 194 111 298 133 115 24 323 36 445 25 107 -9 160 -3 160 18 0 48
-135 74 -365 70 -127 -2 -193 -7 -263 -23 -109 -24 -242 -86 -293 -135 -33
-32 -42 -36 -102 -38 -60 -2 -68 0 -103 29 -74 61 -380 163 -545 182 -183 21
-406 -28 -564 -124 -33 -20 -68 -36 -79 -36 -38 0 -233 -72 -331 -123 -72 -37
-117 -69 -161 -113 l-61 -61 -154 -10 c-154 -11 -154 -11 -295 -68 -198 -79
-254 -130 -254 -233 0 -64 39 -140 97 -192 25 -22 50 -40 54 -40 21 0 6 75
-27 143 -40 80 -40 103 -4 150 44 56 262 140 418 162 155 22 144 26 121 -47
-10 -35 -31 -108 -45 -163 -32 -122 -81 -218 -141 -280 -77 -78 -151 -93 -260
-55 -65 23 -104 25 -121 8 -17 -17 -15 -62 6 -89 9 -13 25 -41 36 -61 10 -20
35 -49 55 -62 32 -22 56 -32 151 -62 8 -3 -15 -19 -55 -39 -74 -36 -133 -95
-161 -160 -59 -141 80 -326 247 -328 54 -1 93 24 84 54 -5 15 1 14 52 -6 75
-31 180 -49 249 -43 53 5 54 4 54 -23 0 -15 -4 -30 -9 -33 -5 -4 -27 -39 -50
-80 -54 -98 -163 -218 -273 -299 -49 -36 -56 -65 -28 -121 33 -70 88 -111 251
-188 144 -69 150 -73 145 -97 -4 -14 -9 -51 -12 -83 -6 -48 -3 -61 15 -86 12
-17 37 -40 55 -51 32 -20 34 -25 38 -86 3 -47 10 -73 27 -96 21 -28 23 -39 18
-95 -4 -38 -16 -83 -32 -115 -36 -70 -29 -105 33 -159 71 -63 120 -88 227
-115 125 -32 159 -31 264 4 162 55 279 64 322 26 19 -18 29 -75 31 -177 1 -72
-27 -163 -62 -206 l-20 -24 -29 25 c-68 57 -396 78 -556 37 -97 -25 -161 -56
-187 -91 -11 -15 -27 -70 -39 -135 -56 -299 -127 -501 -195 -559 -22 -19 -38
-43 -43 -65 -7 -35 -7 -35 -81 -48 -41 -6 -124 -23 -185 -37 -60 -14 -184 -39
-275 -56 -160 -31 -173 -32 -460 -33 -285 -1 -296 -2 -337 -23 -48 -26 -83
-68 -115 -139 -20 -42 -22 -65 -22 -169 1 -137 17 -195 81 -292 53 -81 212
-234 311 -300 251 -167 662 -274 1205 -314 92 -7 166 -13 164 -15 -1 -1 -95
-23 -207 -48 -371 -82 -587 -153 -897 -294 -392 -177 -490 -297 -423 -513 27
-90 77 -167 134 -210 80 -61 251 -124 442 -163 226 -46 429 -75 599 -86 77 -5
186 -12 242 -16 100 -7 101 -6 128 20 25 26 26 28 20 124 -6 88 -4 105 20 182
32 101 39 114 118 249 129 216 336 389 572 476 120 45 209 66 420 99 347 56
451 56 800 0 211 -33 300 -54 420 -99 236 -87 443 -260 572 -476 79 -135 86
-148 118 -249 24 -77 26 -94 20 -182 -6 -96 -5 -98 20 -124 27 -26 28 -27 128
-20 56 4 165 11 242 16 170 11 373 40 599 86 191 39 362 102 442 163 57 43
107 120 134 210 67 216 -31 336 -423 513 -310 141 -526 212 -897 294 -112 25
-206 47 -207 48 -2 2 72 8 164 15 543 40 954 147 1205 314 99 66 258 219 311
300 64 97 80 155 81 292 0 104 -2 127 -22 169 -32 71 -67 113 -115 139 -41 21
-52 22 -337 23 -287 1 -300 2 -460 33 -91 17 -214 42 -275 56 -60 14 -144 31
-185 37 -74 13 -74 13 -81 48 -5 22 -21 46 -43 65 -68 58 -139 260 -195 559
-12 65 -28 120 -39 135 -26 35 -90 66 -187 91 -151 39 -476 21 -548 -31 -27
-19 -30 -20 -47 -4 -32 29 -63 130 -62 203 2 102 12 159 31 177 43 38 160 29
322 -26 105 -35 139 -36 264 -4 107 27 156 52 227 115 62 54 69 89 33 159 -16
32 -28 77 -32 115 -5 56 -3 67 18 95 17 23 24 49 27 96 4 61 6 66 38 86 18 11
43 34 55 51 18 25 21 38 15 86 -3 32 -8 69 -12 83 -5 24 1 28 145 97 163 77
218 118 251 188 30 60 21 85 -45 134 -97 72 -245 238 -245 276 0 10 9 10 48
-2 110 -34 138 -38 214 -25 85 14 178 54 231 101 38 33 145 188 187 270 13 25
50 73 83 107 33 35 56 63 51 63 -6 0 -63 -18 -128 -40 -65 -22 -141 -43 -170
-46 -107 -13 -209 63 -282 210 -19 40 -38 91 -41 114 -5 37 -2 44 32 79 57 57
102 133 146 244 58 147 72 217 66 324 -11 163 -68 293 -182 409 -34 33 -76 88
-95 120 -55 94 -130 169 -201 200 -97 44 -327 74 -429 56z m-2085 -320 c183
-14 437 -90 555 -165 19 -13 52 -29 73 -36 l37 -13 0 -2033 c0 -1118 -2 -2033
-5 -2033 -2 0 -37 11 -78 25 -40 13 -194 53 -343 89 -251 60 -434 117 -434
135 0 4 28 16 62 27 72 21 162 77 201 124 67 79 97 174 97 305 0 210 -66 305
-232 335 -71 13 -136 3 -292 -47 -108 -34 -113 -35 -185 -24 -71 11 -156 43
-193 72 -16 13 -16 18 -1 74 12 47 14 71 5 110 -5 28 -8 63 -5 78 4 19 -4 41
-26 75 -36 57 -37 61 -14 100 24 42 7 75 -56 107 -59 30 -77 53 -84 116 -5 37
-3 48 13 62 22 19 25 39 10 67 -13 25 -123 88 -223 130 -81 33 -137 72 -137
95 0 7 18 25 40 40 38 27 148 143 183 195 9 13 17 22 18 20 0 -3 4 -72 8 -155
5 -97 12 -157 21 -171 36 -57 120 -71 163 -29 31 32 35 57 26 176 -4 52 -10
160 -13 241 l-7 147 48 6 c26 3 77 10 113 15 36 5 99 12 140 16 l75 6 23 -55
c44 -106 144 -192 257 -222 37 -10 102 -15 170 -15 61 0 132 -1 160 -3 69 -3
70 19 4 58 -28 17 -71 51 -95 77 -37 40 -44 53 -44 88 0 22 6 55 14 73 13 31
190 210 241 243 38 25 31 37 -17 29 -158 -24 -308 -116 -358 -219 -28 -58 -28
-168 0 -213 11 -19 15 -33 9 -33 -17 0 -106 47 -144 76 -37 28 -111 122 -103
130 3 2 28 7 55 10 l49 6 -8 62 c-5 33 -7 81 -4 105 l6 44 -49 -7 c-35 -5 -51
-3 -54 6 -4 10 -7 10 -15 -1 -8 -11 -106 -40 -139 -41 -6 0 3 24 21 54 35 57
83 217 72 235 -4 6 -16 11 -26 11 -14 0 -27 -23 -57 -102 -31 -82 -48 -113
-91 -160 -50 -53 -61 -60 -148 -88 -112 -36 -109 -35 -141 -10 -33 26 -83 25
-118 -2 -23 -18 -41 -21 -114 -22 -76 0 -95 4 -164 33 -99 42 -119 67 -115
141 3 51 1 55 -20 58 -61 9 -115 -43 -115 -111 0 -37 -1 -39 -13 -22 -23 30
-17 78 15 121 49 69 82 90 183 114 51 12 97 26 102 31 5 4 -10 13 -33 20 -44
13 -52 26 -23 36 79 27 145 59 199 95 35 24 63 46 63 49 0 4 -51 -6 -112 -22
-174 -43 -285 -61 -348 -53 -93 11 -101 20 -24 28 136 13 254 96 337 237 38
65 60 128 116 344 18 69 40 128 51 140 11 12 20 26 20 32 0 41 209 153 372
199 51 15 114 37 140 50 104 53 199 79 323 92 6 1 64 -3 130 -8z m2854 -354
c20 -82 14 -216 -15 -306 -14 -45 -27 -80 -30 -77 -2 2 3 46 12 97 10 62 14
134 12 216 -2 67 0 120 3 118 4 -2 12 -24 18 -48z m-762 -400 c-12 -194 -74
-402 -162 -536 -56 -86 -99 -124 -225 -201 -117 -71 -203 -145 -231 -201 -46
-89 -2 -253 93 -352 26 -27 48 -51 48 -53 0 -2 -31 -3 -70 -3 -152 0 -296 95
-314 209 -8 51 -2 63 37 81 21 10 43 35 66 75 105 184 280 442 462 680 34 44
84 114 112 155 75 113 181 260 186 260 2 0 1 -51 -2 -114z m-2261 -3198 c-9
-13 -21 -33 -28 -45 -6 -13 -15 -23 -19 -23 -10 0 -190 78 -197 85 -3 3 54 5
128 5 l132 0 -16 -22z m2032 12 c-9 -6 -52 -25 -96 -44 l-81 -35 -24 32 c-44
60 -49 57 90 57 87 -1 123 -4 111 -10z m-2530 -29 c42 -29 105 -59 195 -92 45
-17 132 -52 192 -79 143 -63 238 -90 535 -151 135 -28 281 -61 325 -73 l80
-23 3 -185 2 -186 -27 -5 c-16 -3 -93 -30 -173 -60 -90 -34 -195 -66 -275 -82
-72 -15 -157 -33 -190 -41 -82 -21 -351 -29 -445 -15 -155 23 -389 165 -461
279 l-27 43 49 92 c56 108 108 285 133 455 9 62 19 119 22 127 8 20 30 19 62
-4z m2856 4 c3 -8 13 -65 22 -127 25 -170 77 -347 133 -455 l49 -92 -27 -43
c-72 -114 -306 -256 -461 -279 -94 -14 -363 -6 -445 15 -33 8 -118 26 -190 41
-80 16 -185 48 -275 82 -80 30 -160 58 -177 60 l-33 5 0 183 c0 166 2 184 18
189 9 2 49 14 87 25 39 11 180 43 315 70 297 61 392 88 535 151 61 27 147 62
192 79 87 32 165 69 198 95 26 20 51 20 59 1z m-3220 -842 c52 -67 158 -157
244 -208 l73 -43 -53 -15 c-29 -9 -150 -41 -268 -72 -284 -74 -524 -171 -678
-272 -86 -57 -136 -169 -114 -255 6 -23 10 -43 9 -45 -7 -6 -208 81 -270 118
-89 52 -281 241 -319 314 -47 89 -58 245 -22 316 27 54 25 54 348 60 284 6
310 8 466 38 91 17 190 39 220 48 71 20 268 61 301 62 20 1 35 -10 63 -46z
m3719 22 c70 -14 138 -30 152 -35 14 -5 110 -26 213 -46 183 -36 194 -37 488
-43 323 -6 321 -6 348 -60 36 -71 25 -227 -22 -316 -38 -73 -230 -262 -319
-314 -62 -37 -263 -124 -270 -118 -1 2 3 22 9 45 22 86 -28 198 -114 255 -154
101 -394 198 -678 272 -118 31 -239 63 -268 72 l-53 15 73 43 c86 51 192 141
244 208 20 26 44 47 54 47 9 0 73 -11 143 -25z m-1923 -129 c6 -8 33 -23 58
-32 26 -9 99 -37 162 -62 131 -50 464 -126 600 -137 47 -3 162 -2 257 4 158
10 175 9 215 -7 58 -25 308 -101 494 -151 240 -64 511 -186 574 -257 33 -38
41 -96 18 -126 -34 -44 -229 -125 -355 -147 -218 -39 -932 -85 -1606 -103
-350 -9 -548 -9 -900 0 -676 18 -1391 64 -1610 103 -126 22 -321 103 -354 147
-24 30 -16 88 17 126 63 71 334 193 574 257 186 50 436 126 494 151 40 16 57
17 215 7 95 -6 210 -7 257 -4 136 11 469 87 600 137 63 25 136 53 162 62 25 9
52 24 58 32 7 7 23 14 35 14 12 0 28 -7 35 -14z m-845 -1215 c-181 -63 -250
-100 -400 -212 -147 -110 -235 -207 -333 -370 -99 -165 -162 -338 -162 -445 0
-29 -3 -55 -7 -57 -16 -8 -372 12 -483 28 -408 57 -633 118 -700 190 -31 33
-70 147 -70 205 0 62 31 101 135 165 123 77 511 247 670 294 131 38 396 100
599 140 305 60 530 88 731 89 l100 0 -80 -27z m1822 18 c310 -25 806 -120
1148 -221 158 -46 547 -216 670 -293 104 -64 135 -103 135 -165 0 -58 -39
-172 -70 -205 -67 -72 -292 -133 -700 -190 -111 -16 -467 -36 -482 -28 -5 2
-8 28 -8 57 0 107 -63 280 -162 445 -98 163 -186 260 -333 370 -150 112 -219
149 -400 212 l-80 27 77 1 c42 1 135 -4 205 -10z"/>
<path d="M4815 7655 c-33 -32 -33 -83 -1 -152 l25 -52 -22 -3 c-19 -3 -23 -12
-29 -63 -9 -78 -64 -309 -85 -358 -12 -28 -21 -36 -32 -31 -66 28 -121 -2
-121 -66 0 -31 5 -43 24 -55 57 -37 133 -25 178 29 30 36 76 184 114 374 l5
23 22 -26 c31 -35 76 -42 109 -16 31 25 53 103 45 162 -7 54 -85 216 -115 240
-35 27 -87 25 -117 -6z"/>
</g>
</svg>
